<svg xmlns="http://www.w3.org/2000/svg" width="354.559" height="79.607" viewBox="0 0 354.559 79.607">
  <g id="_01_Navigation" data-name="01 Navigation" transform="translate(-379.72 -318.191)">
    <g id="Artwork_7" data-name="Artwork 7" transform="translate(454.984 335.09)">
      <g id="Group_12" data-name="Group 12" transform="translate(-75.264 -16.899)">
        <path id="Path_1" data-name="Path 1" d="M49.6,40.45V5.092L32.642,23.107l-2.978,3.147Zm22.819-14.2-2.93-3.123L52.482,5.092V40.45ZM49.6,74.654V46.07h0V44l-18.952-13.5L48.183,74.414l.1.216h0a3.675,3.675,0,0,0,.625,1.153h0a2.787,2.787,0,0,0,.456.432l.24.144ZM71.434,30.481,52.482,43.98v2.066h0V76.335l.24-.144a2.763,2.763,0,0,0,.456-.432h0a3.675,3.675,0,0,0,.625-1.153h0l.1-.216Zm5.332-3.819h0l-1.009.721L56.566,75.423l-.072.216h0a5.957,5.957,0,0,1-1.081,1.946h0a5.621,5.621,0,0,1-2.09,1.561h0a5.813,5.813,0,0,1-4.54,0h0a5.621,5.621,0,0,1-2.09-1.561h0a5.957,5.957,0,0,1-1.081-1.946h0l-.072-.216L26.325,27.383l-1.009-.721h0L3.217,10.9l-.336-.24A9.488,9.488,0,0,1,1.728,9.8h0A5.645,5.645,0,0,1,5.571,0h90.94a5.645,5.645,0,0,1,3.843,9.8h0a9.561,9.561,0,0,1-1.153.865l-.336.24ZM54.38,2.882,74.773,24.548l22.435-16,.384-.264a8.333,8.333,0,0,0,.817-.6h0a2.776,2.776,0,0,0-1.874-4.8Zm-6.678,0H5.571A2.774,2.774,0,0,0,3.7,7.686h0a8.335,8.335,0,0,0,.817.6l.384.264,22.411,16Z" transform="translate(0.096 0)" fill="#189dc2"/>
        <path id="Path_2" data-name="Path 2" d="M697.048,56.261a11.1,11.1,0,0,1,5.765,1.489,10.328,10.328,0,0,1,3.915,4.131,12.994,12.994,0,0,1,1.441,6.173,13.14,13.14,0,0,1-1.441,6.221,10.328,10.328,0,0,1-3.915,4.131,11.072,11.072,0,0,1-5.765,1.513,11.265,11.265,0,0,1-5.837-1.513,10.327,10.327,0,0,1-3.915-4.131,13.091,13.091,0,0,1-1.441-6.221,12.922,12.922,0,0,1,1.441-6.173,10.328,10.328,0,0,1,3.915-4.131,11.29,11.29,0,0,1,5.837-1.489m0-6.8a21.715,21.715,0,0,0-7.759,1.345,17.487,17.487,0,0,0-6.029,3.8,16.817,16.817,0,0,0-3.915,5.837,21.114,21.114,0,0,0,0,15.085,16.864,16.864,0,0,0,3.915,5.861,17.608,17.608,0,0,0,6.029,3.8,21.594,21.594,0,0,0,7.759,1.345,21.378,21.378,0,0,0,7.71-1.345,17.513,17.513,0,0,0,6.005-3.8,16.911,16.911,0,0,0,3.891-5.861,21.112,21.112,0,0,0,0-15.085,16.864,16.864,0,0,0-3.891-5.837,17.366,17.366,0,0,0-6.005-3.8A21.5,21.5,0,0,0,697.048,49.464ZM671.275,86.214V49.728h-7.831V86.214ZM667.359,34.5a4.564,4.564,0,0,0-2.354.625,4.37,4.37,0,0,0-1.633,1.681,5.019,5.019,0,0,0-.625,2.5,4.9,4.9,0,0,0,.625,2.45,4.347,4.347,0,0,0,1.633,1.657,4.8,4.8,0,0,0,4.708,0,4.372,4.372,0,0,0,1.633-1.657,4.9,4.9,0,0,0,.625-2.45,5.044,5.044,0,0,0-.625-2.5,4.371,4.371,0,0,0-1.633-1.681A4.565,4.565,0,0,0,667.359,34.5ZM651.65,77.783a4.276,4.276,0,0,0-2.21.576,4.131,4.131,0,0,0-1.537,1.585,4.611,4.611,0,0,0-.577,2.306,4.853,4.853,0,0,0,.577,2.378,4.252,4.252,0,0,0,7.494,0,4.852,4.852,0,0,0,.576-2.378,4.612,4.612,0,0,0-.576-2.306,4.108,4.108,0,0,0-1.537-1.585A4.276,4.276,0,0,0,651.65,77.783ZM614.78,65.221a12.324,12.324,0,0,1,1.9-5.044,9.727,9.727,0,0,1,3.675-3.267,11.1,11.1,0,0,1,5.14-1.153,11.409,11.409,0,0,1,5.236,1.153,8.526,8.526,0,0,1,3.507,3.243,10.679,10.679,0,0,1,1.417,5.068ZM625.42,49.44a20.129,20.129,0,0,0-7.446,1.393,16.838,16.838,0,0,0-9.632,9.656,21.637,21.637,0,0,0-.024,15.085,16.454,16.454,0,0,0,9.656,9.608,21.162,21.162,0,0,0,7.662,1.345,22,22,0,0,0,8.575-1.633,18.231,18.231,0,0,0,6.51-4.54l-4.18-4.468a13.86,13.86,0,0,1-4.66,3.147,14.507,14.507,0,0,1-5.645,1.1A12.082,12.082,0,0,1,621,79.008a10.544,10.544,0,0,1-3.891-3.123,12.3,12.3,0,0,1-2.21-4.876h27.575a32.544,32.544,0,0,0-.456-8.911,17.109,17.109,0,0,0-2.906-6.8,13.4,13.4,0,0,0-5.477-4.324,20.229,20.229,0,0,0-8.215-1.513ZM581.632,79.993a11.391,11.391,0,0,1-5.861-1.537,10.52,10.52,0,0,1-3.939-4.179,13.687,13.687,0,0,1,.024-12.37,10.64,10.64,0,0,1,3.963-4.228,11.746,11.746,0,0,1,11.65,0,10.544,10.544,0,0,1,3.915,4.179,13.406,13.406,0,0,1,1.441,6.245,12.984,12.984,0,0,1-1.441,6.149,10.568,10.568,0,0,1-3.915,4.179A11.151,11.151,0,0,1,581.632,79.993ZM600.7,35.34h-7.879V56.045a13.643,13.643,0,0,0-5.26-4.924,16.492,16.492,0,0,0-7.686-1.729,18.448,18.448,0,0,0-7.062,1.345,15.662,15.662,0,0,0-5.477,3.771,16.934,16.934,0,0,0-3.555,5.813,21.74,21.74,0,0,0-1.273,7.518,22.623,22.623,0,0,0,1.249,7.614,17.078,17.078,0,0,0,3.555,5.909,15.685,15.685,0,0,0,5.525,3.843A18.639,18.639,0,0,0,580,86.575a16.119,16.119,0,0,0,7.614-1.705,13.019,13.019,0,0,0,5.212-4.876v6.245H600.7ZM537.916,80.329a9.656,9.656,0,0,1-3.8-.673,5.4,5.4,0,0,1-2.426-1.874,4.828,4.828,0,0,1-.865-2.858,4.046,4.046,0,0,1,1.849-3.747,11.159,11.159,0,0,1,5.717-1.129h9.872v3.363a6.317,6.317,0,0,1-1.609,3.555,9.463,9.463,0,0,1-3.651,2.45,14.075,14.075,0,0,1-5.092.913Zm10.425,5.909h7.734L556,62.29a13.544,13.544,0,0,0-1.754-6.894,11.168,11.168,0,0,0-5-4.4,19,19,0,0,0-8-1.537,33.943,33.943,0,0,0-4.66.288,23.039,23.039,0,0,0-3.891.865,26.112,26.112,0,0,0-3.531,1.441c-1.153.576-2.378,1.225-3.627,1.994l3.219,5.477a22.939,22.939,0,0,1,5.453-2.762,16.358,16.358,0,0,1,5.333-.937q4.323.024,6.509,1.946a6.767,6.767,0,0,1,2.186,5.4v1.1H537.2a19.128,19.128,0,0,0-7.47,1.393,10.606,10.606,0,0,0-4.684,3.8,10.426,10.426,0,0,0-1.633,5.789,11.578,11.578,0,0,0,.889,4.492,10.473,10.473,0,0,0,2.57,3.579A11.889,11.889,0,0,0,530.9,85.71a16.141,16.141,0,0,0,5.332.865,19.469,19.469,0,0,0,7.038-1.177,12.058,12.058,0,0,0,5.02-3.6Zm-38.888-36.51h-7.879V86.214h7.879V67.166a11.769,11.769,0,0,1,1.922-5.5,10.112,10.112,0,0,1,4.3-3.579,13.525,13.525,0,0,1,6.413-1.057V49.464a14.354,14.354,0,0,0-7.542,1.922,13.45,13.45,0,0,0-5.068,5.621Zm-16.43,28.127a20.4,20.4,0,0,1-2.931,1.177,9.08,9.08,0,0,1-2.57.408,4.347,4.347,0,0,1-2.114-.456,2.907,2.907,0,0,1-1.321-1.537,7.62,7.62,0,0,1-.456-2.954V57.006h10.761V51.1H483.631V41.081H475.8V75.934a12.953,12.953,0,0,0,.817,4.8,8.7,8.7,0,0,0,2.234,3.315,9.2,9.2,0,0,0,3.267,1.9,12.514,12.514,0,0,0,3.915.6,15.686,15.686,0,0,0,4.564-.7,20.106,20.106,0,0,0,4.42-1.97Z" transform="translate(-361.49 -26.212)" fill="#189dc2"/>
      </g>
    </g>
  </g>
</svg>